{"title":"Joe Jonas - See No More - 2011 (UJ.rip)","uid":6512305,"size":30884018,"categoryP":"video","categoryS":"music_videos","magnet":"?xt=urn:btih:c7e4022f7631fe252001f4bcec3c42ce7c8d26e0&amp;dn=Joe+Jonas+-+See+No+More+-+2011+%28UJ.rip%29&amp;tr=udp%3A%2F%2Ftracker.openbittorrent.com%3A80&amp;tr=udp%3A%2F%2Fopen.demonii.com%3A1337&amp;tr=udp%3A%2F%2Ftracker.coppersurfer.tk%3A6969&amp;tr=udp%3A%2F%2Fexodus.desync.com%3A6969","seeders":0,"leechers":1,"uploader":"utpaljoshi123","files":38,"time":1309681964,"description":"Joe Jonas - See No More - 2011 (UJ.rip)\n-----------------------------------------\nFormat                           : AVI\nFormat/Info                      : Audio Video Interleave\nFile size                        : 28.5 MiB\nDuration                         : 3mn 55s\nOverall bit rate                 : 1 016 Kbps\nWriting application              : Lavf52.39.1\n\nVideo\nID                               : 0\nFormat                           : MPEG-4 Visual\nFormat profile                   : Advanced Simple@L1\nFormat settings, BVOP            : 2\nFormat settings, QPel            : No\nFormat settings, GMC             : No warppoints\nFormat settings, Matrix          : Default (H.263)\nCodec ID                         : divx\nCodec ID/Info                    : Mainly used by Google\nCodec ID/Hint                    : DivX\nDuration                         : 3mn 55s\nBit rate                         : 939 Kbps\nWidth                            : 720 pixels\nHeight                           : 480 pixels\nDisplay aspect ratio             : 3:2\nFrame rate                       : 23.917 fps\nStandard                         : NTSC\nColor space                      : YUV\nChroma subsampling               : 4:2:0\nBit depth                        : 8 bits\nScan type                        : Progressive\nCompression mode                 : Lossy\nBits/(Pixel*Frame)               : 0.114\nStream size                      : 26.4 MiB (92%)\nWriting library                  : Lavc52.37.0\n\nAudio\nID                               : 1\nFormat                           : MPEG Audio\nFormat version                   : Version 1\nFormat profile                   : Layer 3\nMode                             : Joint stereo\nMode extension                   : MS Stereo\nCodec ID                         : 55\nCodec ID/Hint                    : MP3\nDuration                         : 3mn 55s\nBit rate mode                    : Constant\nBit rate                         : 64.0 Kbps\nChannel(s)                       : 2 channels\nSampling rate                    : 44.1 KHz\nCompression mode                 : Lossy\nStream size                      : 1.80 MiB (6%)\nAlignment                        : Aligned on interleaves\nInterleave, duration             : 26 ms (0.62 video frame)\n\n-------------------------------------------------------------\n &lt;a href=&quot;\nhttp://thepiratebay.se/user/utpaljoshi123&quot; rel=&quot;nofollow&quot; target=&quot;_NEW&quot;&gt;\nhttp://thepiratebay.se/user/utpaljoshi123&lt;/a&gt;","torrent":{"xt":"urn:btih:c7e4022f7631fe252001f4bcec3c42ce7c8d26e0","amp;dn":"Joe+Jonas+-+See+No+More+-+2011+%28UJ.rip%29","amp;tr":["udp%3A%2F%2Ftracker.openbittorrent.com%3A80","udp%3A%2F%2Fopen.demonii.com%3A1337","udp%3A%2F%2Ftracker.coppersurfer.tk%3A6969","udp%3A%2F%2Fexodus.desync.com%3A6969"],"infoHash":"c7e4022f7631fe252001f4bcec3c42ce7c8d26e0","infoHashBuffer":{"type":"Buffer","data":[199,228,2,47,118,49,254,37,32,1,244,188,236,60,66,206,124,141,38,224]},"announce":[],"urlList":[]}}